<?xml version="1.0" standalone="no"?><!DOCTYPE svg PUBLIC "-//W3C//DTD SVG 1.1//EN" "http://www.w3.org/Graphics/SVG/1.1/DTD/svg11.dtd"><svg t="1627031103473" class="icon" viewBox="0 0 1027 1024" version="1.1" xmlns="http://www.w3.org/2000/svg" p-id="3126" xmlns:xlink="http://www.w3.org/1999/xlink" width="64.1875" height="64"><defs><style type="text/css">@font-face { font-family: feedback-iconfont; src: url("//at.alicdn.com/t/font_1031158_1uhr8ri0pk5.eot?#iefix") format("embedded-opentype"), url("//at.alicdn.com/t/font_1031158_1uhr8ri0pk5.woff2") format("woff2"), url("//at.alicdn.com/t/font_1031158_1uhr8ri0pk5.woff") format("woff"), url("//at.alicdn.com/t/font_1031158_1uhr8ri0pk5.ttf") format("truetype"), url("//at.alicdn.com/t/font_1031158_1uhr8ri0pk5.svg#iconfont") format("svg"); }
</style></defs><path d="M1020.444444 460.8 834.844444 230.4c-19.2-25.6-57.6-25.6-76.8 0L572.444444 460.8c-12.8 19.2 0 44.8 19.2 44.8l70.4 0c0 134.4 0 307.2-243.2 448-6.4 6.4 0 12.8 6.4 12.8 454.4-70.4 492.8-377.6 492.8-460.8l76.8 0C1020.444444 505.6 1033.244444 480 1020.444444 460.8L1020.444444 460.8 1020.444444 460.8zM438.044444 518.4 361.244444 518.4c0-134.4 0-307.2 243.2-448 6.4-6.4 0-12.8-6.4-12.8C143.644444 128 105.244444 435.2 105.244444 518.4L28.444444 518.4C2.844444 518.4-9.955556 544 9.244444 563.2L194.844444 793.6c19.2 25.6 57.6 25.6 76.8 0l185.6-230.4C470.044444 544 457.244444 518.4 438.044444 518.4L438.044444 518.4 438.044444 518.4z" p-id="3127" fill="#bfbfbf"></path></svg>